<svg width="40" height="40" viewBox="0 0 40 40" fill="none" xmlns="http://www.w3.org/2000/svg">
<path d="M0 8C0 3.58172 3.58172 0 8 0H32C36.4183 0 40 3.58172 40 8V32C40 36.4183 36.4183 40 32 40H8C3.58172 40 0 36.4183 0 32V8Z" fill="#20297C"/>
<path d="M20 8.61383C22.9552 11.2283 26.8121 12.5896 30.7536 12.4092C31.3275 14.3613 31.5031 16.4089 31.27 18.4302C31.0369 20.4515 30.3998 22.4054 29.3967 24.1756C28.3935 25.9458 27.0448 27.4964 25.4305 28.7351C23.8163 29.9738 21.9696 30.8753 20 31.3862C18.0305 30.8753 16.1837 29.9738 14.5695 28.7351C12.9553 27.4964 11.6065 25.9458 10.6034 24.1756C9.60025 22.4054 8.9632 20.4515 8.73009 18.4302C8.49698 16.4089 8.67257 14.3613 9.24642 12.4092C13.188 12.5896 17.0449 11.2283 20 8.61383Z" fill="white"/>
<path d="M20 8.61383V31.3862V8.61383Z" fill="white"/>
<path d="M9.24663 20H30.7538H9.24663Z" fill="white"/>
<path d="M20 8.61383C22.9552 11.2283 26.8121 12.5896 30.7536 12.4092C31.3275 14.3613 31.5031 16.4089 31.27 18.4302C31.0369 20.4515 30.3998 22.4054 29.3967 24.1756C28.3935 25.9458 27.0448 27.4964 25.4305 28.7351C23.8163 29.9738 21.9696 30.8753 20 31.3862M20 8.61383C17.0449 11.2283 13.188 12.5896 9.24642 12.4092C8.67257 14.3613 8.49698 16.4089 8.73009 18.4302C8.9632 20.4515 9.60025 22.4054 10.6034 24.1756C11.6065 25.9458 12.9553 27.4964 14.5695 28.7351C16.1837 29.9738 18.0305 30.8753 20 31.3862M20 8.61383V31.3862M9.24663 20H30.7538" stroke="white" stroke-width="1.72022" stroke-linecap="round"/>
</svg>
