<svg width="48" height="48" viewBox="0 0 48 48" fill="none" xmlns="http://www.w3.org/2000/svg">
<path d="M23.5296 2.20947C29.215 7.23953 36.6354 9.8585 44.2186 9.5115C45.3227 13.2672 45.6605 17.2065 45.212 21.0954C44.7635 24.9842 43.5379 28.7432 41.6079 32.1491C39.678 35.5549 37.0831 38.538 33.9774 40.9211C30.8718 43.3042 27.3188 45.0388 23.5296 46.0216C19.7403 45.0388 16.1873 43.3042 13.0817 40.9211C9.97605 38.538 7.38115 35.5549 5.45119 32.1491C3.52123 28.7432 2.29559 24.9842 1.84711 21.0954C1.39862 17.2065 1.73644 13.2672 2.84049 9.5115C10.4237 9.8585 17.8441 7.23953 23.5296 2.20947Z" fill="white"/>
<path d="M23.5296 2.20947V46.0216V2.20947Z" fill="white"/>
<path d="M2.84089 24.1155H44.219H2.84089Z" fill="white"/>
<path d="M23.5296 2.20947C29.215 7.23953 36.6354 9.8585 44.2186 9.5115C45.3227 13.2672 45.6605 17.2065 45.212 21.0954C44.7635 24.9842 43.5379 28.7433 41.6079 32.1491C39.678 35.5549 37.0831 38.538 33.9774 40.9211C30.8718 43.3042 27.3188 45.0388 23.5296 46.0216M23.5296 2.20947C17.8441 7.23953 10.4237 9.8585 2.84049 9.5115C1.73644 13.2672 1.39862 17.2065 1.84711 21.0954C2.29559 24.9842 3.52123 28.7433 5.45119 32.1491C7.38115 35.5549 9.97605 38.538 13.0817 40.9211C16.1873 43.3042 19.7403 45.0388 23.5296 46.0216M23.5296 2.20947V46.0216M2.84089 24.1155H44.219" stroke="white" stroke-width="3.30956" stroke-linecap="round"/>
</svg>
